<svg xmlns="http://www.w3.org/2000/svg" xmlns:xlink="http://www.w3.org/1999/xlink" width="500" zoomAndPan="magnify" viewBox="0 0 375 374.999991" height="500" preserveAspectRatio="xMidYMid meet" version="1.0"><defs><g/><clipPath id="b4c83d908e"><path d="M 13 141.46875 L 137 141.46875 L 137 226 L 13 226 Z M 13 141.46875 " clip-rule="nonzero"/></clipPath><clipPath id="49fdfc8bdd"><path d="M 0 225 L 150 225 L 150 233.71875 L 0 233.71875 Z M 0 225 " clip-rule="nonzero"/></clipPath></defs><g clip-path="url(#b4c83d908e)"><path fill="#f8f8f8" d="M 136.335938 225.996094 L 13.691406 225.996094 L 13.691406 149.183594 C 13.691406 144.945312 17.121094 141.503906 21.355469 141.503906 L 128.667969 141.503906 C 132.902344 141.503906 136.335938 144.945312 136.335938 149.183594 L 136.335938 225.996094 " fill-opacity="1" fill-rule="nonzero"/></g><g clip-path="url(#49fdfc8bdd)"><path fill="#e2e2e3" d="M 143.363281 233.675781 L 6.660156 233.675781 C 6.253906 233.675781 5.863281 233.515625 5.574219 233.226562 L 0.976562 228.617188 C 0.0117188 227.648438 0.695312 225.996094 2.058594 225.996094 L 147.964844 225.996094 C 149.332031 225.996094 150.015625 227.648438 149.046875 228.617188 L 144.449219 233.226562 C 144.160156 233.515625 143.773438 233.675781 143.363281 233.675781 " fill-opacity="1" fill-rule="nonzero"/></g><path fill="#2a394c" d="M 128.671875 152.253906 L 128.671875 215.238281 C 128.671875 216.9375 127.296875 218.316406 125.601562 218.316406 L 24.421875 218.316406 C 22.734375 218.316406 21.359375 216.9375 21.359375 215.238281 L 21.359375 152.253906 C 21.359375 150.5625 22.734375 149.1875 24.421875 149.1875 L 125.601562 149.1875 C 127.296875 149.1875 128.671875 150.5625 128.671875 152.253906 " fill-opacity="1" fill-rule="nonzero"/><path fill="#cfcecd" d="M 87.277344 229.066406 L 62.746094 229.066406 C 61.054688 229.066406 59.683594 227.691406 59.683594 225.996094 L 90.34375 225.996094 C 90.34375 227.691406 88.96875 229.066406 87.277344 229.066406 " fill-opacity="1" fill-rule="nonzero"/><path fill="#2a394c" d="M 82.675781 224.371094 L 67.347656 224.371094 C 66.453125 224.371094 65.726562 223.644531 65.726562 222.746094 C 65.726562 221.847656 66.453125 221.117188 67.347656 221.117188 L 82.675781 221.117188 C 83.574219 221.117188 84.300781 221.847656 84.300781 222.746094 C 84.300781 223.644531 83.574219 224.371094 82.675781 224.371094 " fill-opacity="1" fill-rule="nonzero"/><path fill="#2a394c" d="M 136.335938 230.378906 L 128.667969 230.378906 C 128.371094 230.378906 128.128906 230.136719 128.128906 229.835938 C 128.128906 229.535156 128.371094 229.292969 128.667969 229.292969 L 136.335938 229.292969 C 136.632812 229.292969 136.875 229.535156 136.875 229.835938 C 136.875 230.136719 136.632812 230.378906 136.335938 230.378906 " fill-opacity="1" fill-rule="nonzero"/><path fill="#32435b" d="M 128.671875 215.238281 C 128.671875 216.9375 127.296875 218.316406 125.601562 218.316406 L 24.421875 218.316406 C 22.734375 218.316406 21.359375 216.9375 21.359375 215.238281 L 21.359375 152.253906 C 21.359375 150.5625 22.734375 149.1875 24.421875 149.1875 L 128.671875 215.238281 " fill-opacity="1" fill-rule="nonzero"/><g fill="#ff00ff" fill-opacity="1"><g transform="translate(151.92518, 176.108813)"><g><path d="M 3.253906 -37.734375 L 3.253906 -26.675781 L 11.0625 -26.675781 L 11.0625 -18.867188 L 26.675781 -18.867188 L 26.675781 -7.808594 L 34.484375 -7.808594 L 34.484375 -18.867188 L 26.675781 -18.867188 L 26.675781 -26.675781 L 11.0625 -26.675781 L 11.0625 -37.734375 Z M 11.0625 -7.808594 L 11.0625 -15.613281 L 3.253906 -15.613281 L 3.253906 -7.808594 L 11.0625 -7.808594 L 11.0625 0 L 26.675781 0 L 26.675781 -7.808594 Z M 11.0625 -45.542969 L 11.0625 -37.734375 L 26.675781 -37.734375 L 26.675781 -29.929688 L 34.484375 -29.929688 L 34.484375 -37.734375 L 26.675781 -37.734375 L 26.675781 -45.542969 Z M 11.0625 -45.542969 "/></g></g></g><g fill="#ff00ff" fill-opacity="1"><g transform="translate(196.558076, 176.108813)"><g><path d="M 11.0625 -37.734375 L 26.675781 -37.734375 L 26.675781 -26.675781 L 34.484375 -26.675781 L 34.484375 -37.734375 L 26.675781 -37.734375 L 26.675781 -45.542969 L 3.253906 -45.542969 L 3.253906 0 L 11.0625 0 L 11.0625 -18.867188 L 26.675781 -18.867188 L 26.675781 -26.675781 L 11.0625 -26.675781 Z M 11.0625 -37.734375 "/></g></g></g><g fill="#ff00ff" fill-opacity="1"><g transform="translate(241.190972, 176.108813)"><g><path d="M 11.0625 -37.734375 L 26.675781 -37.734375 L 26.675781 -26.675781 L 11.0625 -26.675781 L 11.0625 -37.734375 L 3.253906 -37.734375 L 3.253906 0 L 11.0625 0 L 11.0625 -18.867188 L 26.675781 -18.867188 L 26.675781 0 L 34.484375 0 L 34.484375 -37.734375 L 26.675781 -37.734375 L 26.675781 -45.542969 L 11.0625 -45.542969 Z M 11.0625 -37.734375 "/></g></g></g><g fill="#ff00ff" fill-opacity="1"><g transform="translate(285.823872, 176.108813)"><g><path d="M 3.253906 -37.734375 L 3.253906 -7.808594 L 11.0625 -7.808594 L 11.0625 0 L 26.675781 0 L 26.675781 -7.808594 L 11.0625 -7.808594 L 11.0625 -37.734375 Z M 11.0625 -45.542969 L 11.0625 -37.734375 L 26.675781 -37.734375 L 26.675781 -29.929688 L 34.484375 -29.929688 L 34.484375 -37.734375 L 26.675781 -37.734375 L 26.675781 -45.542969 Z M 34.484375 -7.808594 L 34.484375 -15.613281 L 26.675781 -15.613281 L 26.675781 -7.808594 Z M 34.484375 -7.808594 "/></g></g></g><g fill="#ff00ff" fill-opacity="1"><g transform="translate(330.456765, 176.108813)"><g><path d="M 3.253906 -45.542969 L 3.253906 0 L 34.484375 0 L 34.484375 -7.808594 L 11.0625 -7.808594 L 11.0625 -18.867188 L 26.675781 -18.867188 L 26.675781 -26.675781 L 11.0625 -26.675781 L 11.0625 -37.734375 L 34.484375 -37.734375 L 34.484375 -45.542969 Z M 3.253906 -45.542969 "/></g></g></g><g fill="#00ffff" fill-opacity="1"><g transform="translate(156.817758, 177.328664)"><g><path d="M 3.253906 -37.734375 L 3.253906 -26.675781 L 11.0625 -26.675781 L 11.0625 -18.867188 L 26.675781 -18.867188 L 26.675781 -7.808594 L 34.484375 -7.808594 L 34.484375 -18.867188 L 26.675781 -18.867188 L 26.675781 -26.675781 L 11.0625 -26.675781 L 11.0625 -37.734375 Z M 11.0625 -7.808594 L 11.0625 -15.613281 L 3.253906 -15.613281 L 3.253906 -7.808594 L 11.0625 -7.808594 L 11.0625 0 L 26.675781 0 L 26.675781 -7.808594 Z M 11.0625 -45.542969 L 11.0625 -37.734375 L 26.675781 -37.734375 L 26.675781 -29.929688 L 34.484375 -29.929688 L 34.484375 -37.734375 L 26.675781 -37.734375 L 26.675781 -45.542969 Z M 11.0625 -45.542969 "/></g></g></g><g fill="#00ffff" fill-opacity="1"><g transform="translate(201.450654, 177.328664)"><g><path d="M 11.0625 -37.734375 L 26.675781 -37.734375 L 26.675781 -26.675781 L 34.484375 -26.675781 L 34.484375 -37.734375 L 26.675781 -37.734375 L 26.675781 -45.542969 L 3.253906 -45.542969 L 3.253906 0 L 11.0625 0 L 11.0625 -18.867188 L 26.675781 -18.867188 L 26.675781 -26.675781 L 11.0625 -26.675781 Z M 11.0625 -37.734375 "/></g></g></g><g fill="#00ffff" fill-opacity="1"><g transform="translate(246.08355, 177.328664)"><g><path d="M 11.0625 -37.734375 L 26.675781 -37.734375 L 26.675781 -26.675781 L 11.0625 -26.675781 L 11.0625 -37.734375 L 3.253906 -37.734375 L 3.253906 0 L 11.0625 0 L 11.0625 -18.867188 L 26.675781 -18.867188 L 26.675781 0 L 34.484375 0 L 34.484375 -37.734375 L 26.675781 -37.734375 L 26.675781 -45.542969 L 11.0625 -45.542969 Z M 11.0625 -37.734375 "/></g></g></g><g fill="#00ffff" fill-opacity="1"><g transform="translate(290.716449, 177.328664)"><g><path d="M 3.253906 -37.734375 L 3.253906 -7.808594 L 11.0625 -7.808594 L 11.0625 0 L 26.675781 0 L 26.675781 -7.808594 L 11.0625 -7.808594 L 11.0625 -37.734375 Z M 11.0625 -45.542969 L 11.0625 -37.734375 L 26.675781 -37.734375 L 26.675781 -29.929688 L 34.484375 -29.929688 L 34.484375 -37.734375 L 26.675781 -37.734375 L 26.675781 -45.542969 Z M 34.484375 -7.808594 L 34.484375 -15.613281 L 26.675781 -15.613281 L 26.675781 -7.808594 Z M 34.484375 -7.808594 "/></g></g></g><g fill="#00ffff" fill-opacity="1"><g transform="translate(335.349343, 177.328664)"><g><path d="M 3.253906 -45.542969 L 3.253906 0 L 34.484375 0 L 34.484375 -7.808594 L 11.0625 -7.808594 L 11.0625 -18.867188 L 26.675781 -18.867188 L 26.675781 -26.675781 L 11.0625 -26.675781 L 11.0625 -37.734375 L 34.484375 -37.734375 L 34.484375 -45.542969 Z M 3.253906 -45.542969 "/></g></g></g><g fill="#3b1b72" fill-opacity="1"><g transform="translate(154.371469, 176.71874)"><g><path d="M 3.253906 -37.734375 L 3.253906 -26.675781 L 11.0625 -26.675781 L 11.0625 -18.867188 L 26.675781 -18.867188 L 26.675781 -7.808594 L 34.484375 -7.808594 L 34.484375 -18.867188 L 26.675781 -18.867188 L 26.675781 -26.675781 L 11.0625 -26.675781 L 11.0625 -37.734375 Z M 11.0625 -7.808594 L 11.0625 -15.613281 L 3.253906 -15.613281 L 3.253906 -7.808594 L 11.0625 -7.808594 L 11.0625 0 L 26.675781 0 L 26.675781 -7.808594 Z M 11.0625 -45.542969 L 11.0625 -37.734375 L 26.675781 -37.734375 L 26.675781 -29.929688 L 34.484375 -29.929688 L 34.484375 -37.734375 L 26.675781 -37.734375 L 26.675781 -45.542969 Z M 11.0625 -45.542969 "/></g></g></g><g fill="#3b1b72" fill-opacity="1"><g transform="translate(199.004365, 176.71874)"><g><path d="M 11.0625 -37.734375 L 26.675781 -37.734375 L 26.675781 -26.675781 L 34.484375 -26.675781 L 34.484375 -37.734375 L 26.675781 -37.734375 L 26.675781 -45.542969 L 3.253906 -45.542969 L 3.253906 0 L 11.0625 0 L 11.0625 -18.867188 L 26.675781 -18.867188 L 26.675781 -26.675781 L 11.0625 -26.675781 Z M 11.0625 -37.734375 "/></g></g></g><g fill="#3b1b72" fill-opacity="1"><g transform="translate(243.637261, 176.71874)"><g><path d="M 11.0625 -37.734375 L 26.675781 -37.734375 L 26.675781 -26.675781 L 11.0625 -26.675781 L 11.0625 -37.734375 L 3.253906 -37.734375 L 3.253906 0 L 11.0625 0 L 11.0625 -18.867188 L 26.675781 -18.867188 L 26.675781 0 L 34.484375 0 L 34.484375 -37.734375 L 26.675781 -37.734375 L 26.675781 -45.542969 L 11.0625 -45.542969 Z M 11.0625 -37.734375 "/></g></g></g><g fill="#3b1b72" fill-opacity="1"><g transform="translate(288.27016, 176.71874)"><g><path d="M 3.253906 -37.734375 L 3.253906 -7.808594 L 11.0625 -7.808594 L 11.0625 0 L 26.675781 0 L 26.675781 -7.808594 L 11.0625 -7.808594 L 11.0625 -37.734375 Z M 11.0625 -45.542969 L 11.0625 -37.734375 L 26.675781 -37.734375 L 26.675781 -29.929688 L 34.484375 -29.929688 L 34.484375 -37.734375 L 26.675781 -37.734375 L 26.675781 -45.542969 Z M 34.484375 -7.808594 L 34.484375 -15.613281 L 26.675781 -15.613281 L 26.675781 -7.808594 Z M 34.484375 -7.808594 "/></g></g></g><g fill="#3b1b72" fill-opacity="1"><g transform="translate(332.903054, 176.71874)"><g><path d="M 3.253906 -45.542969 L 3.253906 0 L 34.484375 0 L 34.484375 -7.808594 L 11.0625 -7.808594 L 11.0625 -18.867188 L 26.675781 -18.867188 L 26.675781 -26.675781 L 11.0625 -26.675781 L 11.0625 -37.734375 L 34.484375 -37.734375 L 34.484375 -45.542969 Z M 3.253906 -45.542969 "/></g></g></g><g fill="#ff00ff" fill-opacity="1"><g transform="translate(152.095175, 230.174517)"><g><path d="M 2.203125 -30.84375 L 2.203125 0 L 7.492188 0 L 7.492188 -20.269531 L 12.777344 -20.269531 L 12.777344 -14.980469 L 18.066406 -14.980469 L 18.066406 -9.695312 L 23.351562 -9.695312 L 23.351562 0 L 28.640625 0 L 28.640625 -30.84375 L 23.351562 -30.84375 L 23.351562 -14.980469 L 18.066406 -14.980469 L 18.066406 -20.269531 L 12.777344 -20.269531 L 12.777344 -25.554688 L 7.492188 -25.554688 L 7.492188 -30.84375 Z M 2.203125 -30.84375 "/></g></g></g><g fill="#ff00ff" fill-opacity="1"><g transform="translate(187.609568, 230.174517)"><g><path d="M 2.203125 -30.84375 L 2.203125 0 L 23.351562 0 L 23.351562 -5.289062 L 7.492188 -5.289062 L 7.492188 -12.777344 L 18.066406 -12.777344 L 18.066406 -18.066406 L 7.492188 -18.066406 L 7.492188 -25.554688 L 23.351562 -25.554688 L 23.351562 -30.84375 Z M 2.203125 -30.84375 "/></g></g></g><g fill="#ff00ff" fill-opacity="1"><g transform="translate(217.880531, 230.174517)"><g><path d="M 2.203125 -30.84375 L 2.203125 -25.554688 L 10.132812 -25.554688 L 10.132812 0 L 15.421875 0 L 15.421875 -25.554688 L 23.351562 -25.554688 L 23.351562 -30.84375 Z M 2.203125 -30.84375 "/></g></g></g><g fill="#ff00ff" fill-opacity="1"><g transform="translate(248.107437, 230.174517)"><g><path d="M 12.777344 -10.574219 L 18.066406 -10.574219 L 18.066406 -5.289062 L 23.351562 -5.289062 L 23.351562 0 L 28.640625 0 L 28.640625 -30.84375 L 23.351562 -30.84375 L 23.351562 -10.574219 L 18.066406 -10.574219 L 18.066406 -20.09375 L 12.777344 -20.09375 Z M 7.492188 0 L 7.492188 -5.289062 L 12.777344 -5.289062 L 12.777344 -10.574219 L 7.492188 -10.574219 L 7.492188 -30.84375 L 2.203125 -30.84375 L 2.203125 0 Z M 7.492188 0 "/></g></g></g><g fill="#ff00ff" fill-opacity="1"><g transform="translate(283.621827, 230.174517)"><g><path d="M 7.492188 -25.554688 L 18.066406 -25.554688 L 18.066406 -5.289062 L 23.351562 -5.289062 L 23.351562 -25.554688 L 18.066406 -25.554688 L 18.066406 -30.84375 L 7.492188 -30.84375 Z M 7.492188 -25.554688 L 2.203125 -25.554688 L 2.203125 -5.289062 L 7.492188 -5.289062 L 7.492188 0 L 18.066406 0 L 18.066406 -5.289062 L 7.492188 -5.289062 Z M 7.492188 -25.554688 "/></g></g></g><g fill="#ff00ff" fill-opacity="1"><g transform="translate(313.848727, 230.174517)"><g><path d="M 7.492188 -25.554688 L 18.066406 -25.554688 L 18.066406 -18.066406 L 23.351562 -18.066406 L 23.351562 -25.554688 L 18.066406 -25.554688 L 18.066406 -30.84375 L 2.203125 -30.84375 L 2.203125 0 L 7.492188 0 L 7.492188 -12.777344 L 18.066406 -12.777344 L 18.066406 0 L 23.351562 0 L 23.351562 -12.777344 L 18.066406 -12.777344 L 18.066406 -18.066406 L 7.492188 -18.066406 Z M 7.492188 -25.554688 "/></g></g></g><g fill="#ff00ff" fill-opacity="1"><g transform="translate(344.075627, 230.174517)"><g><path d="M 7.492188 -18.066406 L 7.492188 -30.84375 L 2.203125 -30.84375 L 2.203125 0 L 7.492188 0 L 7.492188 -12.777344 L 12.777344 -12.777344 L 12.777344 -7.492188 L 18.066406 -7.492188 L 18.066406 0 L 23.351562 0 L 23.351562 -7.492188 L 18.066406 -7.492188 L 18.066406 -12.777344 L 12.777344 -12.777344 L 12.777344 -18.066406 Z M 18.066406 -30.84375 L 18.066406 -23.351562 L 23.351562 -23.351562 L 23.351562 -30.84375 Z M 12.777344 -23.351562 L 12.777344 -18.066406 L 18.066406 -18.066406 L 18.066406 -23.351562 Z M 12.777344 -23.351562 "/></g></g></g><g fill="#00ffff" fill-opacity="1"><g transform="translate(155.408622, 231.000659)"><g><path d="M 2.203125 -30.84375 L 2.203125 0 L 7.492188 0 L 7.492188 -20.269531 L 12.777344 -20.269531 L 12.777344 -14.980469 L 18.066406 -14.980469 L 18.066406 -9.695312 L 23.351562 -9.695312 L 23.351562 0 L 28.640625 0 L 28.640625 -30.84375 L 23.351562 -30.84375 L 23.351562 -14.980469 L 18.066406 -14.980469 L 18.066406 -20.269531 L 12.777344 -20.269531 L 12.777344 -25.554688 L 7.492188 -25.554688 L 7.492188 -30.84375 Z M 2.203125 -30.84375 "/></g></g></g><g fill="#00ffff" fill-opacity="1"><g transform="translate(190.923015, 231.000659)"><g><path d="M 2.203125 -30.84375 L 2.203125 0 L 23.351562 0 L 23.351562 -5.289062 L 7.492188 -5.289062 L 7.492188 -12.777344 L 18.066406 -12.777344 L 18.066406 -18.066406 L 7.492188 -18.066406 L 7.492188 -25.554688 L 23.351562 -25.554688 L 23.351562 -30.84375 Z M 2.203125 -30.84375 "/></g></g></g><g fill="#00ffff" fill-opacity="1"><g transform="translate(221.193978, 231.000659)"><g><path d="M 2.203125 -30.84375 L 2.203125 -25.554688 L 10.132812 -25.554688 L 10.132812 0 L 15.421875 0 L 15.421875 -25.554688 L 23.351562 -25.554688 L 23.351562 -30.84375 Z M 2.203125 -30.84375 "/></g></g></g><g fill="#00ffff" fill-opacity="1"><g transform="translate(251.420884, 231.000659)"><g><path d="M 12.777344 -10.574219 L 18.066406 -10.574219 L 18.066406 -5.289062 L 23.351562 -5.289062 L 23.351562 0 L 28.640625 0 L 28.640625 -30.84375 L 23.351562 -30.84375 L 23.351562 -10.574219 L 18.066406 -10.574219 L 18.066406 -20.09375 L 12.777344 -20.09375 Z M 7.492188 0 L 7.492188 -5.289062 L 12.777344 -5.289062 L 12.777344 -10.574219 L 7.492188 -10.574219 L 7.492188 -30.84375 L 2.203125 -30.84375 L 2.203125 0 Z M 7.492188 0 "/></g></g></g><g fill="#00ffff" fill-opacity="1"><g transform="translate(286.935274, 231.000659)"><g><path d="M 7.492188 -25.554688 L 18.066406 -25.554688 L 18.066406 -5.289062 L 23.351562 -5.289062 L 23.351562 -25.554688 L 18.066406 -25.554688 L 18.066406 -30.84375 L 7.492188 -30.84375 Z M 7.492188 -25.554688 L 2.203125 -25.554688 L 2.203125 -5.289062 L 7.492188 -5.289062 L 7.492188 0 L 18.066406 0 L 18.066406 -5.289062 L 7.492188 -5.289062 Z M 7.492188 -25.554688 "/></g></g></g><g fill="#00ffff" fill-opacity="1"><g transform="translate(317.162174, 231.000659)"><g><path d="M 7.492188 -25.554688 L 18.066406 -25.554688 L 18.066406 -18.066406 L 23.351562 -18.066406 L 23.351562 -25.554688 L 18.066406 -25.554688 L 18.066406 -30.84375 L 2.203125 -30.84375 L 2.203125 0 L 7.492188 0 L 7.492188 -12.777344 L 18.066406 -12.777344 L 18.066406 0 L 23.351562 0 L 23.351562 -12.777344 L 18.066406 -12.777344 L 18.066406 -18.066406 L 7.492188 -18.066406 Z M 7.492188 -25.554688 "/></g></g></g><g fill="#00ffff" fill-opacity="1"><g transform="translate(347.389074, 231.000659)"><g><path d="M 7.492188 -18.066406 L 7.492188 -30.84375 L 2.203125 -30.84375 L 2.203125 0 L 7.492188 0 L 7.492188 -12.777344 L 12.777344 -12.777344 L 12.777344 -7.492188 L 18.066406 -7.492188 L 18.066406 0 L 23.351562 0 L 23.351562 -7.492188 L 18.066406 -7.492188 L 18.066406 -12.777344 L 12.777344 -12.777344 L 12.777344 -18.066406 Z M 18.066406 -30.84375 L 18.066406 -23.351562 L 23.351562 -23.351562 L 23.351562 -30.84375 Z M 12.777344 -23.351562 L 12.777344 -18.066406 L 18.066406 -18.066406 L 18.066406 -23.351562 Z M 12.777344 -23.351562 "/></g></g></g><g fill="#3b1b72" fill-opacity="1"><g transform="translate(153.751899, 230.587588)"><g><path d="M 2.203125 -30.84375 L 2.203125 0 L 7.492188 0 L 7.492188 -20.269531 L 12.777344 -20.269531 L 12.777344 -14.980469 L 18.066406 -14.980469 L 18.066406 -9.695312 L 23.351562 -9.695312 L 23.351562 0 L 28.640625 0 L 28.640625 -30.84375 L 23.351562 -30.84375 L 23.351562 -14.980469 L 18.066406 -14.980469 L 18.066406 -20.269531 L 12.777344 -20.269531 L 12.777344 -25.554688 L 7.492188 -25.554688 L 7.492188 -30.84375 Z M 2.203125 -30.84375 "/></g></g></g><g fill="#3b1b72" fill-opacity="1"><g transform="translate(189.266293, 230.587588)"><g><path d="M 2.203125 -30.84375 L 2.203125 0 L 23.351562 0 L 23.351562 -5.289062 L 7.492188 -5.289062 L 7.492188 -12.777344 L 18.066406 -12.777344 L 18.066406 -18.066406 L 7.492188 -18.066406 L 7.492188 -25.554688 L 23.351562 -25.554688 L 23.351562 -30.84375 Z M 2.203125 -30.84375 "/></g></g></g><g fill="#3b1b72" fill-opacity="1"><g transform="translate(219.537255, 230.587588)"><g><path d="M 2.203125 -30.84375 L 2.203125 -25.554688 L 10.132812 -25.554688 L 10.132812 0 L 15.421875 0 L 15.421875 -25.554688 L 23.351562 -25.554688 L 23.351562 -30.84375 Z M 2.203125 -30.84375 "/></g></g></g><g fill="#3b1b72" fill-opacity="1"><g transform="translate(249.764161, 230.587588)"><g><path d="M 12.777344 -10.574219 L 18.066406 -10.574219 L 18.066406 -5.289062 L 23.351562 -5.289062 L 23.351562 0 L 28.640625 0 L 28.640625 -30.84375 L 23.351562 -30.84375 L 23.351562 -10.574219 L 18.066406 -10.574219 L 18.066406 -20.09375 L 12.777344 -20.09375 Z M 7.492188 0 L 7.492188 -5.289062 L 12.777344 -5.289062 L 12.777344 -10.574219 L 7.492188 -10.574219 L 7.492188 -30.84375 L 2.203125 -30.84375 L 2.203125 0 Z M 7.492188 0 "/></g></g></g><g fill="#3b1b72" fill-opacity="1"><g transform="translate(285.278552, 230.587588)"><g><path d="M 7.492188 -25.554688 L 18.066406 -25.554688 L 18.066406 -5.289062 L 23.351562 -5.289062 L 23.351562 -25.554688 L 18.066406 -25.554688 L 18.066406 -30.84375 L 7.492188 -30.84375 Z M 7.492188 -25.554688 L 2.203125 -25.554688 L 2.203125 -5.289062 L 7.492188 -5.289062 L 7.492188 0 L 18.066406 0 L 18.066406 -5.289062 L 7.492188 -5.289062 Z M 7.492188 -25.554688 "/></g></g></g><g fill="#3b1b72" fill-opacity="1"><g transform="translate(315.505452, 230.587588)"><g><path d="M 7.492188 -25.554688 L 18.066406 -25.554688 L 18.066406 -18.066406 L 23.351562 -18.066406 L 23.351562 -25.554688 L 18.066406 -25.554688 L 18.066406 -30.84375 L 2.203125 -30.84375 L 2.203125 0 L 7.492188 0 L 7.492188 -12.777344 L 18.066406 -12.777344 L 18.066406 0 L 23.351562 0 L 23.351562 -12.777344 L 18.066406 -12.777344 L 18.066406 -18.066406 L 7.492188 -18.066406 Z M 7.492188 -25.554688 "/></g></g></g><g fill="#3b1b72" fill-opacity="1"><g transform="translate(345.732352, 230.587588)"><g><path d="M 7.492188 -18.066406 L 7.492188 -30.84375 L 2.203125 -30.84375 L 2.203125 0 L 7.492188 0 L 7.492188 -12.777344 L 12.777344 -12.777344 L 12.777344 -7.492188 L 18.066406 -7.492188 L 18.066406 0 L 23.351562 0 L 23.351562 -7.492188 L 18.066406 -7.492188 L 18.066406 -12.777344 L 12.777344 -12.777344 L 12.777344 -18.066406 Z M 18.066406 -30.84375 L 18.066406 -23.351562 L 23.351562 -23.351562 L 23.351562 -30.84375 Z M 12.777344 -23.351562 L 12.777344 -18.066406 L 18.066406 -18.066406 L 18.066406 -23.351562 Z M 12.777344 -23.351562 "/></g></g></g></svg>